<svg xmlns="http://www.w3.org/2000/svg" xmlns:xlink="http://www.w3.org/1999/xlink" width="4000" zoomAndPan="magnify" viewBox="0 0 3000 2999.999989" height="4000" preserveAspectRatio="xMidYMid meet" version="1.0"><defs><clipPath id="46914adb30"><path d="M 176 342.777344 L 2824 342.777344 L 2824 2657.277344 L 176 2657.277344 Z M 176 342.777344 " clip-rule="nonzero"/></clipPath><clipPath id="b4484a991d"><path d="M 1087 342.777344 L 2433 342.777344 L 2433 1574 L 1087 1574 Z M 1087 342.777344 " clip-rule="nonzero"/></clipPath><clipPath id="307bacf59d"><path d="M 954 342.777344 L 2449 342.777344 L 2449 1694 L 954 1694 Z M 954 342.777344 " clip-rule="nonzero"/></clipPath><clipPath id="e85ae4d1d8"><path d="M 1025 342.777344 L 2489 342.777344 L 2489 1605 L 1025 1605 Z M 1025 342.777344 " clip-rule="nonzero"/></clipPath></defs><path stroke-linecap="butt" transform="matrix(2.292321, 0, 0, 2.292321, -104.599984, 89.603203)" fill="none" stroke-linejoin="miter" d="M 664.999695 494.593799 L 664.999695 823.593002 " stroke="#106719" stroke-width="15" stroke-opacity="1" stroke-miterlimit="4"/><path stroke-linecap="butt" transform="matrix(2.292321, 0, 0, 2.292321, -104.599984, 89.603203)" fill="none" stroke-linejoin="miter" d="M 663.358687 503.502618 C 476.438785 544.858418 408.499669 515.093625 381.999852 471.093126 " stroke="#106719" stroke-width="10" stroke-opacity="1" stroke-miterlimit="4"/><path stroke-linecap="butt" transform="matrix(2.292321, 0, 0, 2.292321, -104.599984, 89.603203)" fill="none" stroke-linejoin="miter" d="M 662.000552 499.092514 C 621.048614 460.076386 509.499228 408.593365 375.999862 470.593836 " stroke="#106719" stroke-width="10" stroke-opacity="1" stroke-miterlimit="4"/><path stroke-linecap="butt" transform="matrix(2.292321, 0, 0, 2.292321, -104.599984, 89.603203)" fill="none" stroke-linejoin="miter" d="M 944.499402 286.592987 C 880.00078 263.593307 678.093682 220.59309 666.499267 496.59266 " stroke="#106719" stroke-width="10" stroke-opacity="1" stroke-miterlimit="4"/><path stroke-linecap="butt" transform="matrix(2.292321, 0, 0, 2.292321, -104.599984, 89.603203)" fill="none" stroke-linejoin="miter" d="M 938.499411 287.59327 C 875.500361 433.59361 681.443862 506.435303 664.500406 501.093079 " stroke="#106719" stroke-width="10" stroke-opacity="1" stroke-miterlimit="4"/><path stroke-linecap="butt" transform="matrix(2.292321, 0, 0, 2.292321, -104.599984, 89.603203)" fill="none" stroke-linejoin="miter" d="M 665.500689 811.093732 C 665.500689 811.093732 664.507222 938.957776 445.999185 914.957813 " stroke="#106719" stroke-width="15" stroke-opacity="1" stroke-miterlimit="4"/><path stroke-linecap="butt" transform="matrix(2.292321, 0, 0, 2.292321, -104.599984, 89.603203)" fill="none" stroke-linejoin="miter" d="M 669.500114 628.592454 C 749.899307 728.997296 916.000724 624.593028 945.499684 591.092939 " stroke="#106719" stroke-width="10" stroke-opacity="1" stroke-miterlimit="4"/><path stroke-linecap="butt" transform="matrix(2.292321, 0, 0, 2.292321, -104.599984, 89.603203)" fill="none" stroke-linejoin="miter" d="M 671.999968 630.593019 C 742.500285 534.593169 904.999321 550.592576 950.499393 593.093504 " stroke="#106719" stroke-width="10" stroke-opacity="1" stroke-miterlimit="4"/><path stroke-linecap="butt" transform="matrix(2.292321, 0, 0, 2.292321, -104.599984, 89.603203)" fill="none" stroke-linejoin="miter" d="M 664.999695 810.592739 C 733.351194 948.422118 1024.000556 810.592739 1024.000556 810.592739 " stroke="#106719" stroke-width="15" stroke-opacity="1" stroke-miterlimit="4"/><path stroke-linecap="round" transform="matrix(2.292321, 0, 0, 2.292321, -104.599984, 89.603203)" fill="none" stroke-linejoin="miter" d="M 409.00407 477.365766 C 407.119381 477.365766 404.902401 477.207288 403.19323 476.329698 C 402.348017 475.893459 401.656169 475.322599 400.705305 475.084031 " stroke="#106719" stroke-width="30" stroke-opacity="1" stroke-miterlimit="4"/><path stroke-linecap="round" transform="matrix(2.292321, 0, 0, 2.292321, -104.599984, 89.603203)" fill="none" stroke-linejoin="miter" d="M 412.187252 468.961348 C 414.177593 468.961348 415.827121 468.381968 417.730555 468.346183 C 423.042106 468.247348 428.39285 466.190549 433.728258 466.190549 C 438.153698 466.190549 442.672862 463.963344 446.987539 463.179477 C 449.698696 462.687004 452.389405 462.283142 455.114194 461.87928 C 458.048584 461.444745 460.907994 460.505809 463.891801 460.355852 C 466.287707 460.236568 468.6359 459.449293 471.009654 459.415211 C 473.920186 459.374314 476.738699 458.977268 479.632191 458.817087 C 483.013043 458.62964 486.416049 458.978972 489.795197 458.73018 C 495.060738 458.345063 500.738662 457.995731 505.980346 458.73018 C 507.972391 459.009645 510.102464 458.798342 512.106437 458.798342 C 514.843156 458.798342 517.564537 459.106777 520.284215 459.106777 C 523.288471 459.106777 526.464836 459.497006 529.455459 459.791808 C 530.713054 459.916205 531.919528 460.030377 533.185643 460.030377 C 533.466813 460.030377 534.404045 460.030377 533.526455 460.030377 " stroke="#106719" stroke-width="30" stroke-opacity="1" stroke-miterlimit="4"/><path stroke-linecap="round" transform="matrix(2.292321, 0, 0, 2.292321, -104.599984, 89.603203)" fill="none" stroke-linejoin="miter" d="M 533.526455 460.030377 C 537.018071 460.030377 540.283048 460.597828 543.689461 460.955681 C 547.342963 461.340798 551.003281 462.470589 554.605661 463.247639 C 557.838261 463.944599 560.994177 464.682457 564.136461 465.728749 C 566.476134 466.509208 568.822623 466.827867 571.23557 467.422583 C 577.085603 468.864217 582.855546 470.232576 588.637417 471.904258 C 595.489437 473.889486 615.295711 482.0826 608.672035 479.432789 " stroke="#106719" stroke-width="30" stroke-opacity="1" stroke-miterlimit="4"/><path stroke-linecap="round" transform="matrix(2.292321, 0, 0, 2.292321, -104.599984, 89.603203)" fill="none" stroke-linejoin="miter" d="M 611.442835 487.748595 C 613.048058 487.908777 614.070493 489.582162 615.600738 489.92127 C 616.935016 490.217776 618.054582 490.381366 619.450207 490.589261 C 621.764318 490.931777 624.034124 491.313486 626.276666 491.906499 C 627.914266 492.339329 630.23349 492.17574 631.700684 492.983464 C 632.470919 493.409478 632.833884 493.196471 631.768847 492.983464 " stroke="#106719" stroke-width="30" stroke-opacity="1" stroke-miterlimit="4"/><path stroke-linecap="round" transform="matrix(2.292321, 0, 0, 2.292321, -104.599984, 89.603203)" fill="none" stroke-linejoin="miter" d="M 619.450207 496.988002 C 615.082704 496.988002 610.713498 496.988002 606.344291 496.988002 C 599.744472 496.988002 593.13102 498.443268 586.531201 498.835201 C 579.916045 499.228839 573.306001 499.043096 566.685733 499.143636 C 564.550548 499.176013 562.236436 500.024634 560.114883 500.307508 C 554.183055 501.096487 548.193288 502.064392 542.218859 502.463142 C 540.439821 502.580722 538.645447 502.655701 536.915828 502.22287 " stroke="#106719" stroke-width="30" stroke-opacity="1" stroke-miterlimit="4"/><path stroke-linecap="round" transform="matrix(2.292321, 0, 0, 2.292321, -104.599984, 89.603203)" fill="none" stroke-linejoin="miter" d="M 579.415052 506.535842 C 573.288961 506.535842 567.164574 506.535842 561.038483 506.535842 C 553.835427 506.535842 546.720982 507.716755 539.514517 507.766173 C 535.170872 507.796846 530.847675 507.686082 526.51255 508.074607 C 523.332776 508.359185 520.234797 508.998207 517.034575 508.998207 C 516.284789 508.998207 515.671328 508.892556 515.049347 509.306642 " stroke="#106719" stroke-width="30" stroke-opacity="1" stroke-miterlimit="4"/><path stroke-linecap="round" transform="matrix(2.292321, 0, 0, 2.292321, -104.599984, 89.603203)" fill="none" stroke-linejoin="miter" d="M 515.049347 509.306642 C 506.861345 509.306642 498.741505 509.495792 490.599513 508.553448 C 481.573114 507.50886 472.367789 506.35862 463.617447 503.831501 C 461.332305 503.170326 458.936398 502.052464 456.603542 501.675867 C 454.616609 501.355504 452.641605 500.897112 450.802926 500.067236 C 448.449621 499.005607 445.881605 498.569368 443.446505 497.758236 C 441.633386 497.153295 439.360172 497.030603 437.749836 496.064402 " stroke="#106719" stroke-width="30" stroke-opacity="1" stroke-miterlimit="4"/><path stroke-linecap="round" transform="matrix(2.292321, 0, 0, 2.292321, -104.599984, 89.603203)" fill="none" stroke-linejoin="miter" d="M 437.749836 496.064402 C 433.804941 496.064402 429.883902 495.730406 426.371837 493.753698 C 425.610122 493.325979 422.033303 491.76847 422.350258 491.136264 " stroke="#106719" stroke-width="30" stroke-opacity="1" stroke-miterlimit="4"/><path stroke-linecap="round" transform="matrix(2.292321, 0, 0, 2.292321, -104.599984, 89.603203)" fill="none" stroke-linejoin="miter" d="M 426.354796 490.212664 C 435.377787 490.212664 444.397369 487.194776 453.147711 485.352689 C 458.733615 484.176888 464.750646 483.885494 470.42857 483.299298 C 474.361537 482.895436 478.32177 483.086291 482.266666 482.667092 C 485.541866 482.319464 488.96532 482.343321 492.259266 482.222333 C 508.664239 481.615688 525.595766 480.400694 541.961546 482.341617 C 549.841113 483.277145 557.926872 483.128892 565.864377 483.128892 " stroke="#106719" stroke-width="30" stroke-opacity="1" stroke-miterlimit="4"/><path stroke-linecap="round" transform="matrix(2.292321, 0, 0, 2.292321, -104.599984, 89.603203)" fill="none" stroke-linejoin="miter" d="M 689.510876 473.579347 C 689.510876 464.857975 689.510876 456.136603 689.510876 447.416934 C 689.510876 442.638754 689.263787 437.971337 690.110704 433.31244 C 691.346147 426.518358 692.678721 419.24714 693.319447 412.369559 C 694.873548 395.666376 702.792309 378.968305 711.653414 365.122828 C 714.362868 360.888242 716.518502 356.346926 719.657378 352.395213 C 722.099294 349.319388 725.069468 347.451739 727.589771 344.602553 C 731.398342 340.301509 734.86951 336.20836 738.449737 331.733502 C 740.85246 328.729246 744.584348 323.518235 748.534356 322.531585 " stroke="#106719" stroke-width="30" stroke-opacity="1" stroke-miterlimit="4"/><path stroke-linecap="round" transform="matrix(2.292321, 0, 0, 2.292321, -104.599984, 89.603203)" fill="none" stroke-linejoin="miter" d="M 748.534356 322.531585 C 749.895899 322.531585 754.019721 323.288187 754.880271 322.212926 C 756.209437 320.551469 758.849024 319.239344 760.592276 318.0874 C 762.21454 317.015547 768.383232 312.375395 762.495709 312.375395 " stroke="#106719" stroke-width="30" stroke-opacity="1" stroke-miterlimit="4"/><path stroke-linecap="round" transform="matrix(2.292321, 0, 0, 2.292321, -104.599984, 89.603203)" fill="none" stroke-linejoin="miter" d="M 759.958366 313.646623 C 758.034484 313.646623 757.030793 314.394705 755.514181 315.691493 C 753.125091 317.73466 749.263694 319.731816 747.334699 322.14306 C 746.833706 322.768449 748.600815 321.154705 749.204052 320.626447 C 751.744803 318.404355 755.514181 317.373399 758.336102 315.40862 C 765.218795 310.613398 771.375559 305.327408 778.679155 301.270045 C 780.669495 300.164111 782.857507 298.226596 785.026773 297.744347 C 786.759801 297.35923 788.787631 295.927821 790.455904 295.241085 C 793.364732 294.043132 796.442262 293.383661 799.306785 292.066424 C 802.607547 290.549811 806.564371 290.270346 810.095181 289.387643 C 817.103974 287.634167 824.724525 285.720509 831.990631 285.720509 C 846.65576 285.720509 861.394164 285.44786 876.098486 285.720509 C 879.579878 285.785263 882.609694 287.625647 885.900232 287.625647 C 888.009856 287.625647 889.86728 289.52908 892.283635 289.52908 C 896.453467 289.52908 900.577289 291.366056 904.799947 291.432514 C 908.514794 291.492156 912.582383 291.534757 916.082519 292.702038 " stroke="#106719" stroke-width="30" stroke-opacity="1" stroke-miterlimit="4"/><path stroke-linecap="round" transform="matrix(2.292321, 0, 0, 2.292321, -104.599984, 89.603203)" fill="none" stroke-linejoin="miter" d="M 920.525 292.702038 C 918.742555 292.702038 917.261728 293.17747 916.752214 294.958211 C 916.033101 297.47681 911.266849 300.02097 909.312294 301.65857 C 904.072313 306.044817 899.152696 310.901384 894.362587 315.691493 C 891.538962 318.515119 888.694888 321.057574 885.724714 323.729538 C 885.167486 324.230531 883.826392 326.338452 883.081719 326.338452 C 882.386463 326.338452 896.216603 319.549482 896.373376 319.004183 C 896.606832 318.186235 899.319694 316.877518 900.357466 316.183966 C 900.897652 315.82441 907.011815 313.646623 904.65851 313.646623 " stroke="#106719" stroke-width="30" stroke-opacity="1" stroke-miterlimit="4"/><path stroke-linecap="round" transform="matrix(2.292321, 0, 0, 2.292321, -104.599984, 89.603203)" fill="none" stroke-linejoin="miter" d="M 904.0246 313.011009 C 902.560813 313.336484 901.180526 315.99652 900.251814 317.066669 C 899.542925 317.881209 897.196437 318.593505 897.959855 319.356924 C 898.827221 320.224289 902.760188 315.749431 903.67186 315.585842 C 906.13252 315.137674 904.813579 315.168347 905.328205 313.363749 C 905.766148 311.835209 909.18449 312.826971 905.928033 311.741485 " stroke="#106719" stroke-width="30" stroke-opacity="1" stroke-miterlimit="4"/><path stroke-linecap="round" transform="matrix(2.292321, 0, 0, 2.292321, -104.599984, 89.603203)" fill="none" stroke-linejoin="miter" d="M 905.928033 311.741485 C 905.721842 313.803396 902.930594 315.42566 901.34582 316.572492 C 898.356901 318.72983 889.886025 323.071772 889.427633 326.972362 C 889.289604 328.15157 886.820423 329.187638 886.254676 330.463978 C 885.056723 333.156391 881.103306 336.475897 878.920407 338.396371 C 876.761365 340.296397 870.267197 345.698263 872.925529 344.602553 C 875.553187 343.520476 877.988287 342.564499 880.542671 341.288159 C 883.258941 339.930024 885.90364 337.544342 886.888586 334.589504 " stroke="#106719" stroke-width="30" stroke-opacity="1" stroke-miterlimit="4"/><path stroke-linecap="round" transform="matrix(2.292321, 0, 0, 2.292321, -104.599984, 89.603203)" fill="none" stroke-linejoin="miter" d="M 895.773548 332.684367 C 888.827804 332.684367 884.637524 340.21801 879.13171 343.755636 C 874.554609 346.698545 869.931498 349.394366 865.487313 352.429295 C 857.713397 357.737437 850.043429 363.945323 841.862243 368.508792 C 833.839535 372.983651 825.027847 376.429257 816.442799 379.649928 " stroke="#106719" stroke-width="30" stroke-opacity="1" stroke-miterlimit="4"/><path stroke-linecap="round" transform="matrix(2.292321, 0, 0, 2.292321, -104.599984, 89.603203)" fill="none" stroke-linejoin="miter" d="M 875.464576 337.128552 C 867.697477 347.484116 856.655176 358.603099 845.636733 365.545434 C 840.943755 368.50368 835.361259 370.756446 830.404152 373.30231 C 826.709753 375.200631 823.151678 377.586313 820.10823 380.425275 C 816.291138 383.988462 810.800661 389.151759 805.6527 390.438324 " stroke="#106719" stroke-width="30" stroke-opacity="1" stroke-miterlimit="4"/><path stroke-linecap="round" transform="matrix(2.292321, 0, 0, 2.292321, -104.599984, 89.603203)" fill="none" stroke-linejoin="miter" d="M 887.522495 343.474466 C 880.713077 350.285589 871.22147 355.407989 862.772747 359.974867 C 856.965315 363.113743 851.430532 367.286982 845.989473 371.04784 C 838.827314 375.994722 831.61233 385.501666 822.788714 387.265366 " stroke="#106719" stroke-width="30" stroke-opacity="1" stroke-miterlimit="4"/><path stroke-linecap="round" transform="matrix(2.292321, 0, 0, 2.292321, -104.599984, 89.603203)" fill="none" stroke-linejoin="miter" d="M 866.579614 366.322485 C 866.008754 368.420181 863.314638 370.574112 861.854259 372.03449 C 859.117541 374.771208 856.23257 377.838514 853.110734 380.142401 C 847.92358 383.974829 842.078658 385.948129 836.257594 388.53489 C 830.414377 391.131876 825.237446 394.553625 819.12158 396.644506 C 817.224962 397.293752 814.67569 398.689376 812.634228 398.689376 " stroke="#106719" stroke-width="30" stroke-opacity="1" stroke-miterlimit="4"/><path stroke-linecap="round" transform="matrix(2.292321, 0, 0, 2.292321, -104.599984, 89.603203)" fill="none" stroke-linejoin="miter" d="M 836.751771 382.822885 C 836.751771 386.583743 837.107919 392.992708 832.449023 394.105458 C 830.279756 394.625196 828.033807 394.482055 825.820234 395.022242 C 819.81854 396.489436 814.556406 401.816324 808.967094 404.401381 C 803.987834 406.703564 799.719167 410.157691 794.864304 412.652433 C 790.999499 414.637661 787.168775 416.629706 783.440295 418.856911 C 778.472964 421.823677 772.766071 424.018504 767.573804 426.613786 C 763.577787 428.612647 759.322752 430.950615 754.880271 431.690177 " stroke="#106719" stroke-width="30" stroke-opacity="1" stroke-miterlimit="4"/><path stroke-linecap="round" transform="matrix(2.292321, 0, 0, 2.292321, -104.599984, 89.603203)" fill="none" stroke-linejoin="miter" d="M 822.154804 404.401381 C 822.033816 405.364174 820.566621 405.094933 819.82706 405.318164 C 815.440813 406.640514 811.238604 409.017676 806.993794 410.747295 C 799.819707 413.669756 792.226421 415.915705 785.202291 419.139784 C 782.012293 420.603571 779.083017 422.631401 775.823152 423.933301 C 774.664392 424.398509 772.846162 424.686495 771.9805 425.697002 C 770.417878 427.520345 767.330124 428.621167 765.31763 429.822528 C 761.674353 431.995203 758.235563 434.048594 754.246361 435.498748 " stroke="#106719" stroke-width="30" stroke-opacity="1" stroke-miterlimit="4"/><path stroke-linecap="round" transform="matrix(2.292321, 0, 0, 2.292321, -104.599984, 89.603203)" fill="none" stroke-linejoin="miter" d="M 809.461271 421.537395 C 805.109105 421.932736 799.812891 426.513246 796.133828 428.658656 C 790.314467 432.053141 784.917714 435.936691 778.326415 437.72084 C 768.173633 440.469487 758.327582 444.168998 748.181616 446.922757 C 745.588039 447.626533 743.826042 449.197676 741.411391 450.237151 C 735.590327 452.745526 729.571591 455.204482 723.922637 458.029812 C 716.714469 461.633896 709.475627 466.439341 702.204409 470.404686 " stroke="#106719" stroke-width="30" stroke-opacity="1" stroke-miterlimit="4"/><path stroke-linecap="round" transform="matrix(2.292321, 0, 0, 2.292321, -104.599984, 89.603203)" fill="none" stroke-linejoin="miter" d="M 693.953357 475.482781 C 691.77557 475.482781 698.322563 475.208427 700.440708 474.707434 C 705.476201 473.514593 709.973212 471.116982 714.756505 469.276599 C 715.855623 468.853993 716.654826 467.792364 717.718159 467.231729 C 720.168595 465.938348 723.595458 465.202195 725.686338 463.424862 C 726.995055 462.312111 728.736603 462.306999 730.128819 461.378287 C 734.28161 458.610896 739.6937 457.40783 744.444616 455.949156 C 747.051825 455.148248 751.02569 454.633623 752.341224 451.999148 " stroke="#106719" stroke-width="30" stroke-opacity="1" stroke-miterlimit="4"/><path stroke-linecap="round" transform="matrix(2.292321, 0, 0, 2.292321, -104.599984, 89.603203)" fill="none" stroke-linejoin="miter" d="M 711.089371 452.634762 C 711.089371 439.556111 718.936561 427.390836 722.51338 414.872821 C 727.162052 398.600765 728.211752 380.786535 739.049566 367.239269 C 741.326188 364.391787 744.604797 362.464496 746.700789 359.55226 C 749.844778 355.184758 753.312537 350.975733 757.347748 347.388689 C 762.957509 342.402613 769.160283 335.928894 776.494551 333.636935 C 778.762654 332.929751 781.066541 333.771556 783.227287 332.578715 C 788.508165 329.666479 793.139797 325.621043 798.882475 323.552316 C 804.320126 321.596057 809.469791 317.942555 814.854617 315.550056 C 825.494759 310.821294 839.556651 306.049929 851.348738 305.395571 C 851.793497 305.37001 876.565398 300.615686 876.7341 303.490433 C 876.841456 305.313776 873.099343 307.466002 871.516272 308.074351 C 869.875264 308.706557 868.960184 309.028624 867.213524 309.202438 C 863.362351 309.587555 859.966162 313.629582 857.200475 315.902797 C 849.845758 321.950501 844.200211 330.165768 837.527118 336.987115 C 831.38569 343.264867 825.232334 349.634638 818.981847 355.885126 C 804.752957 370.112312 786.194054 378.671798 770.465592 391.109723 C 762.674635 397.268191 756.955814 405.209104 749.768095 412.016819 C 745.518173 416.04351 741.65848 420.57801 736.89734 424.004872 C 735.210322 425.219866 733.715862 426.736478 732.315126 428.271835 C 731.2126 429.478308 728.225385 431.533403 728.225385 433.278359 C 728.225385 434.312723 728.225385 437.415814 728.225385 436.38145 C 728.225385 430.195717 731.902744 427.462407 734.712736 422.312742 C 740.687166 411.357348 746.651372 400.362762 752.518446 389.346022 C 755.582343 383.591416 758.373591 378.341211 762.495709 373.30231 C 767.887351 366.712715 770.646222 359.127949 777.481201 353.557382 C 787.949234 345.028568 799.676566 341.925477 811.857177 336.634375 C 816.769979 334.500893 822.146284 333.110381 827.231195 331.416547 C 829.715712 330.588374 832.237719 329.945944 834.740982 329.194454 C 834.805736 329.17571 837.109623 328.340721 837.102807 328.383322 C 836.964778 329.494369 831.828745 331.624442 830.898329 332.191894 C 826.856302 334.65085 823.391951 337.786318 820.46097 341.499462 C 807.315861 358.15834 795.847546 376.004947 785.343728 394.388332 C 778.561575 406.255397 765.636289 414.063393 754.104924 420.550745 C 746.985367 424.553579 739.761862 427.644741 732.173689 430.563794 C 730.341826 431.26757 722.774101 440.464375 721.877766 438.673409 " stroke="#106719" stroke-width="30" stroke-opacity="1" stroke-miterlimit="4"/><path stroke-linecap="round" transform="matrix(2.292321, 0, 0, 2.292321, -104.599984, 89.603203)" fill="none" stroke-linejoin="miter" d="M 707.916413 451.365238 C 703.727837 458.600671 696.219755 463.811683 689.82783 468.782422 C 686.971828 471.006219 684.788929 474.293348 682.318044 476.999393 C 681.617676 477.766219 681.106458 482.30924 679.9903 481.194786 " stroke="#106719" stroke-width="30" stroke-opacity="1" stroke-miterlimit="4"/><path stroke-linecap="round" transform="matrix(2.292321, 0, 0, 2.292321, -104.599984, 89.603203)" fill="none" stroke-linejoin="miter" d="M 679.9903 470.404686 L 679.9903 481.194786 " stroke="#106719" stroke-width="30" stroke-opacity="1" stroke-miterlimit="4"/><path stroke-linecap="round" transform="matrix(2.292321, 0, 0, 2.292321, -104.599984, 89.603203)" fill="none" stroke-linejoin="miter" d="M 650.566318 496.272297 C 650.28174 496.272297 646.587341 496.459743 646.689585 495.994535 C 646.83443 495.350401 647.797223 495.619642 648.233462 495.522511 C 648.613467 495.437308 648.531672 494.33819 648.531672 495.449237 C 648.531672 496.398397 648.473734 497.081725 647.604664 497.640656 C 646.684473 498.233668 646.486802 499.308929 646.031818 500.334773 C 645.839259 500.767604 645.212166 502.899381 644.726509 502.761352 C 644.165874 502.599467 643.596718 502.914718 643.082092 502.914718 C 641.696693 502.914718 645.754056 502.185381 647.091743 501.825824 C 648.63562 501.40833 650.09259 500.909041 651.677365 500.672176 C 653.437657 500.411455 655.047993 499.469111 656.859407 499.419693 C 657.430267 499.402653 656.014194 499.695751 655.789258 499.748577 C 655.020728 499.927503 654.722517 499.975216 654.083495 499.562834 C 653.633624 499.273144 653.691562 498.719325 653.156487 498.453492 C 652.979265 498.363177 652.241408 497.937162 652.416926 497.937162 " stroke="#106719" stroke-width="5" stroke-opacity="1" stroke-miterlimit="4"/><path stroke-linecap="round" transform="matrix(2.292321, 0, 0, 2.292321, -104.599984, 89.603203)" fill="none" stroke-linejoin="miter" d="M 676.660569 495.161251 C 675.358668 495.161251 673.995421 495.014702 672.773611 494.607432 " stroke="#106719" stroke-width="5" stroke-opacity="1" stroke-miterlimit="4"/><path stroke-linecap="round" transform="matrix(2.292321, 0, 0, 2.292321, -104.599984, 89.603203)" fill="none" stroke-linejoin="miter" d="M 756.003246 621.737026 C 741.825477 621.737026 727.707351 623.575705 713.907884 626.879875 C 708.120901 628.265275 702.75482 630.308441 696.860481 630.308441 C 680.324295 630.308441 697.371698 636.144842 701.146188 628.594158 " stroke="#106719" stroke-width="30" stroke-opacity="1" stroke-miterlimit="4"/><path stroke-linecap="round" transform="matrix(2.292321, 0, 0, 2.292321, -104.599984, 89.603203)" fill="none" stroke-linejoin="miter" d="M 696.770166 625.155368 C 699.779533 622.4817 702.052748 620.039784 705.310908 617.282617 C 709.910162 613.390547 716.731509 611.379757 722.073733 608.709497 " stroke="#106719" stroke-width="30" stroke-opacity="1" stroke-miterlimit="4"/><path stroke-linecap="round" transform="matrix(2.292321, 0, 0, 2.292321, -104.599984, 89.603203)" fill="none" stroke-linejoin="miter" d="M 722.019203 607.013959 C 723.7812 607.013959 727.557394 607.780785 728.89508 606.576016 C 729.910699 605.660936 732.342391 604.587379 733.581241 604.232935 C 735.484675 603.689341 736.902452 601.731377 738.58095 601.264465 C 741.450584 600.466966 744.195823 599.308206 747.080794 598.577164 C 749.219388 598.035274 751.748211 598.0881 753.767521 597.171316 C 755.936787 596.184666 750.153212 595.411023 749.018309 595.889864 C 747.445463 596.552743 744.817804 597.452486 743.112042 597.452486 C 741.995883 597.452486 740.370211 598.98273 742.830872 597.890429 C 743.740839 597.486567 743.849899 596.958309 744.51789 596.327807 C 745.531805 595.370126 748.023139 595.43488 749.362529 594.889581 C 762.994999 589.33435 776.394012 586.328391 790.764339 583.516694 C 795.288615 582.630583 800.049755 581.391733 804.357615 579.735388 C 807.69757 578.450527 812.174132 578.857797 815.69983 578.453935 C 820.662049 577.886484 835.56745 576.640817 830.574558 576.640817 " stroke="#106719" stroke-width="30" stroke-opacity="1" stroke-miterlimit="4"/><path stroke-linecap="round" transform="matrix(2.292321, 0, 0, 2.292321, -104.599984, 89.603203)" fill="none" stroke-linejoin="miter" d="M 766.454238 591.827388 C 772.101488 590.012565 778.055469 589.327534 783.203431 586.20229 C 785.292606 584.934471 784.817174 582.167079 782.765487 581.141236 " stroke="#106719" stroke-width="30" stroke-opacity="1" stroke-miterlimit="4"/><path stroke-linecap="round" transform="matrix(2.292321, 0, 0, 2.292321, -104.599984, 89.603203)" fill="none" stroke-linejoin="miter" d="M 782.765487 581.141236 C 779.791905 581.141236 776.455358 580.636835 773.577203 581.516129 C 768.27758 583.136689 760.803579 585.798428 756.579218 589.578031 C 752.695668 593.052606 748.135607 596.213635 743.768104 599.076454 C 740.169132 601.436575 737.277345 604.086386 733.143298 605.326941 C 730.926318 605.991524 728.826918 607.215038 726.800792 605.638784 C 725.836295 604.888998 725.475034 603.559832 726.519622 602.51354 C 727.15694 601.877926 728.738307 601.216751 729.612489 600.826522 C 731.011521 600.206245 731.582381 597.967111 731.582381 600.826522 " stroke="#106719" stroke-width="30" stroke-opacity="1" stroke-miterlimit="4"/><path stroke-linecap="round" transform="matrix(2.292321, 0, 0, 2.292321, -104.599984, 89.603203)" fill="none" stroke-linejoin="miter" d="M 742.268533 624.449888 C 751.153495 624.449888 760.038457 624.449888 768.923419 624.449888 C 776.291768 624.449888 784.198601 621.62967 791.171609 619.388833 C 802.74728 615.667169 814.472907 612.477171 826.074139 608.825373 C 830.27294 607.504728 834.551831 606.437987 838.728479 605.045771 C 839.974146 604.629981 842.354716 604.261904 842.947728 603.077583 " stroke="#106719" stroke-width="30" stroke-opacity="1" stroke-miterlimit="4"/><path stroke-linecap="round" transform="matrix(2.292321, 0, 0, 2.292321, -104.599984, 89.603203)" fill="none" stroke-linejoin="miter" d="M 782.765487 610.950335 C 782.291759 612.845248 765.563015 611.514378 763.328994 611.514378 C 762.913204 611.514378 759.203468 611.539939 759.830562 611.514378 C 762.124225 611.417247 764.559324 609.847809 766.735407 609.200266 C 785.560144 603.604138 805.424356 601.426351 824.88641 599.265604 C 829.836701 598.715193 834.814256 598.432319 839.761138 597.890429 C 840.606352 597.796706 842.279737 597.755808 842.978401 597.171316 C 844.03151 596.293726 846.790381 596.12332 848.071833 595.765468 C 851.531072 594.797562 855.07381 594.407333 858.602915 593.795576 C 861.290216 593.330368 864.437612 592.389727 867.133433 592.389727 C 869.384495 592.389727 881.587259 592.052324 881.195326 591.265049 " stroke="#106719" stroke-width="30" stroke-opacity="1" stroke-miterlimit="4"/><path stroke-linecap="round" transform="matrix(2.292321, 0, 0, 2.292321, -104.599984, 89.603203)" fill="none" stroke-linejoin="miter" d="M 835.073273 585.077612 C 835.236863 583.780823 843.516884 584.515272 845.260136 584.515272 C 846.693249 584.515272 856.01445 583.390593 850.822183 583.390593 " stroke="#106719" stroke-width="30" stroke-opacity="1" stroke-miterlimit="4"/><path stroke-linecap="round" transform="matrix(2.292321, 0, 0, 2.292321, -104.599984, 89.603203)" fill="none" stroke-linejoin="miter" d="M 841.823049 581.141236 C 841.823049 577.95635 841.838386 576.402249 844.885243 577.07876 C 849.711137 578.152317 855.503233 577.203156 860.47738 577.203156 C 864.66766 577.203156 868.939735 578.678871 872.758531 578.890174 C 876.895985 579.120222 880.820433 579.089549 884.850531 579.98418 C 890.577873 581.257112 896.48414 582.572645 902.129687 584.077329 C 906.049022 585.123621 911.139045 586.766334 915.223674 586.766334 C 916.64145 586.766334 919.441219 586.062557 919.441219 587.889308 " stroke="#106719" stroke-width="30" stroke-opacity="1" stroke-miterlimit="4"/><path stroke-linecap="round" transform="matrix(2.292321, 0, 0, 2.292321, -104.599984, 89.603203)" fill="none" stroke-linejoin="miter" d="M 886.25638 607.013959 C 885.366861 607.191181 884.57277 607.935855 883.819576 608.389134 C 880.140513 610.604411 876.432482 612.882737 872.56938 614.762314 C 858.565426 621.581957 842.581356 625.658065 827.573711 629.667715 C 815.524312 632.888386 803.650431 635.923315 791.389728 638.44873 C 784.532596 639.861394 777.772595 641.052531 770.954657 642.886099 C 765.276733 644.411231 759.902132 645.261556 754.079363 645.261556 " stroke="#106719" stroke-width="30" stroke-opacity="1" stroke-miterlimit="4"/><path stroke-linecap="round" transform="matrix(2.292321, 0, 0, 2.292321, -104.599984, 89.603203)" fill="none" stroke-linejoin="miter" d="M 754.079363 645.261556 C 741.624398 645.261556 728.489514 644.697513 716.39581 644.697513 " stroke="#106719" stroke-width="30" stroke-opacity="1" stroke-miterlimit="4"/><path stroke-linecap="round" transform="matrix(2.292321, 0, 0, 2.292321, -104.599984, 89.603203)" fill="none" stroke-linejoin="miter" d="M 716.958149 644.697513 C 716.448635 642.40385 711.336459 641.60635 709.646033 640.761137 " stroke="#106719" stroke-width="30" stroke-opacity="1" stroke-miterlimit="4"/><path stroke-linecap="round" transform="matrix(2.292321, 0, 0, 2.292321, -104.599984, 89.603203)" fill="none" stroke-linejoin="miter" d="M 709.646033 640.761137 C 712.602575 640.761137 716.463972 640.043729 719.207506 641.19908 C 720.608243 641.788685 722.84908 640.974145 724.145868 642.010212 C 725.94365 643.450142 728.939386 645.600664 731.018337 646.822474 C 732.8502 647.899439 722.029428 647.510914 727.644301 647.510914 C 735.452298 647.510914 742.270237 652.009629 749.861818 652.009629 C 759.038174 652.009629 768.21453 652.009629 777.390886 652.009629 C 780.478641 652.009629 783.617517 652.181739 786.701863 652.009629 C 788.467268 651.912497 790.605861 650.363508 792.326961 649.884668 C 797.607839 648.419177 803.072755 646.870188 808.326368 644.980387 C 813.581685 643.087177 819.784458 643.675078 824.731341 641.011634 C 829.451583 638.469178 835.245383 638.349894 839.885535 635.698379 C 843.929266 633.389379 848.015599 631.383702 852.228032 629.512646 C 856.498403 627.614325 860.279709 624.594733 864.757975 622.762869 C 868.973817 621.038362 873.365176 618.477162 877.13285 616.013093 C 879.890017 614.210199 882.884048 611.763171 885.97521 610.389699 C 888.865294 609.104839 891.828652 606.487405 894.943671 605.919953 C 896.143328 605.701834 897.896805 604.556706 898.943097 603.888715 C 900.178539 603.103144 902.47561 602.700986 903.129969 601.388861 " stroke="#106719" stroke-width="30" stroke-opacity="1" stroke-miterlimit="4"/><path stroke-linecap="round" transform="matrix(2.292321, 0, 0, 2.292321, -104.599984, 89.603203)" fill="none" stroke-linejoin="miter" d="M 884.221734 618.855463 C 884.28308 619.353048 885.399238 619.019053 885.777539 619.375201 C 886.070637 619.651258 885.518522 620.148843 885.518522 620.542481 C 885.518522 621.699537 882.914721 622.508965 883.701996 620.93271 " stroke="#106719" stroke-width="20" stroke-opacity="1" stroke-miterlimit="4"/><path stroke-linecap="round" transform="matrix(2.292321, 0, 0, 2.292321, -104.599984, 89.603203)" fill="none" stroke-linejoin="miter" d="M 883.701996 620.93271 C 884.606851 620.026151 886.505172 619.339416 887.132266 618.337429 C 888.170038 616.677676 890.341009 615.478019 891.94964 614.443655 C 895.83319 611.947209 899.297541 608.576581 903.036246 605.749547 C 907.246975 602.566366 911.563355 599.710363 916.128529 597.200285 C 917.271952 596.571487 919.802479 593.892707 920.930566 594.214774 C 921.337836 594.332354 921.005545 595.162231 920.669845 595.223577 C 919.853601 595.373534 919.187314 594.695319 918.478426 594.460159 " stroke="#106719" stroke-width="20" stroke-opacity="1" stroke-miterlimit="4"/><path stroke-linecap="round" transform="matrix(2.292321, 0, 0, 2.292321, -104.599984, 89.603203)" fill="none" stroke-linejoin="miter" d="M 918.219409 594.460159 C 917.287289 596.288614 916.28019 598.079579 915.363406 599.909738 " stroke="#106719" stroke-width="20" stroke-opacity="1" stroke-miterlimit="4"/><path stroke-linecap="round" transform="matrix(2.292321, 0, 0, 2.292321, -104.599984, 89.603203)" fill="none" stroke-linejoin="miter" d="M 915.883144 598.871967 C 917.150964 598.641919 918.546588 596.990686 919.603104 596.276685 C 920.105802 595.937578 921.540619 595.38035 921.852462 594.835052 C 922.469331 593.752974 923.411676 592.643632 924.577252 592.123894 C 925.650809 591.646758 928.186448 588.344292 929.379289 588.807796 C 929.721805 588.942417 931.420751 589.603591 930.417061 589.269596 " stroke="#106719" stroke-width="20" stroke-opacity="1" stroke-miterlimit="4"/><g clip-path="url(#46914adb30)"><path stroke-linecap="butt" transform="matrix(2.292321, 0, 0, 2.292321, -104.599984, 89.603203)" fill="none" stroke-linejoin="miter" d="M 1192.499583 616.999743 C 1192.499583 625.059941 1192.301913 633.115026 1191.906571 641.164999 C 1191.511229 649.216677 1190.918217 657.253017 1190.129238 665.274022 C 1189.338555 673.295026 1188.351905 681.292173 1187.169288 689.265464 C 1185.986671 697.23705 1184.609792 705.17626 1183.036946 713.081388 C 1181.464099 720.986516 1179.698695 728.849043 1177.740731 736.667265 C 1175.781064 744.485486 1173.632246 752.252585 1171.292573 759.965155 C 1168.9529 767.677725 1166.425781 775.328948 1163.709512 782.918826 C 1160.994946 790.506999 1158.094638 798.025306 1155.010292 805.472042 C 1151.925946 812.918779 1148.66097 820.28372 1145.215363 827.570275 C 1141.768052 834.85683 1138.145223 842.054774 1134.346877 849.162403 C 1130.546826 856.271736 1126.574665 863.282233 1122.432098 870.1956 C 1118.287827 877.108966 1113.976559 883.91668 1109.498293 890.618743 C 1105.020026 897.319102 1100.381579 903.906993 1095.579541 910.382416 C 1090.777504 916.856135 1085.820397 923.207161 1080.708221 929.438904 C 1075.594341 935.668943 1070.330504 941.771177 1064.918413 947.742198 C 1059.506323 953.714924 1053.949388 959.551325 1048.249311 965.249697 C 1042.550939 970.949774 1036.714538 976.505005 1030.743516 981.918799 C 1024.770791 987.33089 1018.668556 992.594727 1012.438518 997.706903 C 1006.208479 1002.820783 999.855748 1007.77789 993.382029 1012.579928 C 986.908311 1017.380261 980.32042 1022.020413 973.618357 1026.498679 C 966.916294 1030.976945 960.108579 1035.288214 953.195213 1039.43078 C 946.281847 1043.575051 939.27135 1047.547212 932.162017 1051.345559 C 925.054388 1055.14561 917.856444 1058.768438 910.571593 1062.214045 C 903.285038 1065.661356 895.918393 1068.926332 888.471656 1072.010678 C 881.02492 1075.095025 873.506613 1077.995333 865.918439 1080.709898 C 858.328562 1083.426168 850.679043 1085.953287 842.964769 1088.292959 C 835.252199 1090.632632 827.486804 1092.78145 819.666878 1094.741117 C 811.848657 1096.699081 803.987834 1098.464486 796.082706 1100.037332 C 788.175874 1101.608474 780.238368 1102.987057 772.265078 1104.169674 C 764.291787 1105.352291 756.29464 1106.338941 748.273635 1107.12792 C 740.252631 1107.918603 732.21629 1108.511616 724.166317 1108.906957 C 716.11464 1109.302299 708.059554 1109.49997 699.999357 1109.49997 C 691.939159 1109.49997 683.884074 1109.302299 675.834101 1108.906957 C 667.784127 1108.511616 659.747786 1107.918603 651.726782 1107.12792 C 643.705778 1106.338941 635.708631 1105.352291 627.73534 1104.169674 C 619.762049 1102.987057 611.82284 1101.608474 603.917712 1100.037332 C 596.012583 1098.464486 588.150057 1096.699081 580.331835 1094.741117 C 572.513614 1092.78145 564.748219 1090.632632 557.033945 1088.292959 C 549.321375 1085.953287 541.670152 1083.426168 534.081978 1080.709898 C 526.492101 1077.995333 518.975498 1075.095025 511.528762 1072.010678 C 504.082025 1068.926332 496.715379 1065.661356 489.428824 1062.214045 C 482.142269 1058.768438 474.94603 1055.14561 467.836697 1051.345559 C 460.729068 1047.547212 453.71857 1043.575051 446.8035 1039.43078 C 439.891838 1035.288214 433.084124 1030.976945 426.382061 1026.498679 C 419.679998 1022.020413 413.092107 1017.380261 406.618388 1012.579928 C 400.144669 1007.77789 393.791938 1002.820783 387.5619 997.706903 C 381.330157 992.594727 375.229627 987.33089 369.256901 981.918799 C 363.28588 976.505005 357.449479 970.949774 351.749402 965.249697 C 346.05103 959.551325 340.494095 953.714924 335.082004 947.742198 C 329.66821 941.771177 324.406077 935.668943 319.292197 929.438904 C 314.178316 923.207161 309.22121 916.856135 304.420876 910.382416 C 299.618839 903.906993 294.978687 897.319102 290.500421 890.618743 C 286.023859 883.91668 281.71259 877.108966 277.568319 870.1956 C 273.425753 863.282233 269.453592 856.271736 265.653541 849.162403 C 261.85349 842.054774 258.230661 834.85683 254.785055 827.570275 C 251.339448 820.28372 248.074472 812.918779 244.990125 805.472042 C 241.904075 798.025306 239.005471 790.506999 236.289202 782.918826 C 233.574636 775.328948 231.045813 767.677725 228.706141 759.965155 C 226.366468 752.252585 224.21765 744.485486 222.259687 736.667265 C 220.301723 728.849043 218.536318 720.986516 216.963472 713.081388 C 215.390626 705.17626 214.013747 697.23705 212.83113 689.265464 C 211.648513 681.292173 210.661863 673.295026 209.87118 665.274022 C 209.082201 657.253017 208.489188 649.216677 208.093847 641.164999 C 207.698505 633.115026 207.500834 625.059941 207.500834 616.999743 C 207.500834 608.939545 207.698505 600.88446 208.093847 592.834487 C 208.489188 584.784513 209.082201 576.748173 209.87118 568.727168 C 210.661863 560.706164 211.648513 552.709017 212.83113 544.735726 C 214.013747 536.762435 215.390626 528.823226 216.963472 520.918098 C 218.536318 513.012969 220.301723 505.150443 222.259687 497.332221 C 224.21765 489.514 226.366468 481.748605 228.706141 474.034331 C 231.045813 466.321761 233.574636 458.670538 236.289202 451.082364 C 239.005471 443.492487 241.904075 435.97418 244.990125 428.529148 C 248.074472 421.082411 251.339448 413.715765 254.785055 406.429211 C 258.230661 399.142656 261.85349 391.944712 265.653541 384.837083 C 269.453592 377.729454 273.425753 370.717253 277.568319 363.803886 C 281.71259 356.89052 286.023859 350.082806 290.500421 343.382447 C 294.978687 336.680384 299.618839 330.092493 304.420876 323.618774 C 309.22121 317.143351 314.178316 310.792325 319.292197 304.560582 C 324.406077 298.330543 329.66821 292.230013 335.082004 286.257288 C 340.494095 280.284562 346.05103 274.449865 351.749402 268.749789 C 357.449479 263.049712 363.28588 257.494481 369.256901 252.082391 C 375.229627 246.668596 381.330157 241.406463 387.5619 236.292583 C 393.791938 231.178703 400.144669 226.221596 406.618388 221.419558 C 413.092107 216.619225 419.679998 211.979073 426.382061 207.500807 C 433.084124 203.022541 439.891838 198.712976 446.8035 194.568706 C 453.71857 190.424435 460.729068 186.453978 467.836697 182.653927 C 474.94603 178.853876 482.142269 175.231048 489.428824 171.785441 C 496.715379 168.339834 504.082025 165.073154 511.528762 161.988808 C 518.975498 158.904461 526.492101 156.004153 534.081978 153.289588 C 541.670152 150.573318 549.321375 148.046199 557.033945 145.706527 C 564.748219 143.366854 572.513614 141.218036 580.331835 139.260073 C 588.150057 137.300405 596.012583 135.535 603.917712 133.963858 C 611.82284 132.391012 619.762049 131.012429 627.73534 129.829812 C 635.708631 128.647195 643.705778 127.662249 651.726782 126.871566 C 659.747786 126.080883 667.784127 125.489574 675.834101 125.092529 C 683.884074 124.697187 691.939159 124.499516 699.999357 124.499516 C 708.059554 124.499516 716.11464 124.697187 724.166317 125.092529 C 732.21629 125.489574 740.252631 126.080883 748.273635 126.871566 C 756.29464 127.662249 764.291787 128.647195 772.265078 129.829812 C 780.238368 131.012429 788.175874 132.391012 796.082706 133.963858 C 803.987834 135.535 811.848657 137.300405 819.666878 139.260073 C 827.486804 141.218036 835.252199 143.366854 842.964769 145.706527 C 850.679043 148.046199 858.328562 150.573318 865.918439 153.289588 C 873.506613 156.004153 881.02492 158.904461 888.471656 161.988808 C 895.918393 165.073154 903.285038 168.339834 910.571593 171.785441 C 917.856444 175.231048 925.054388 178.853876 932.162017 182.653927 C 939.27135 186.453978 946.281847 190.424435 953.195213 194.568706 C 960.108579 198.712976 966.916294 203.022541 973.618357 207.500807 C 980.32042 211.979073 986.908311 216.619225 993.382029 221.419558 C 999.855748 226.221596 1006.208479 231.178703 1012.438518 236.292583 C 1018.668556 241.406463 1024.770791 246.668596 1030.743516 252.082391 C 1036.714538 257.494481 1042.550939 263.049712 1048.249311 268.749789 C 1053.949388 274.449865 1059.506323 280.284562 1064.918413 286.257288 C 1070.330504 292.230013 1075.594341 298.330543 1080.708221 304.560582 C 1085.820397 310.792325 1090.777504 317.143351 1095.579541 323.618774 C 1100.381579 330.092493 1105.020026 336.680384 1109.498293 343.382447 C 1113.976559 350.082806 1118.287827 356.89052 1122.432098 363.803886 C 1126.574665 370.717253 1130.546826 377.729454 1134.346877 384.837083 C 1138.145223 391.944712 1141.768052 399.142656 1145.215363 406.429211 C 1148.66097 413.715765 1151.925946 421.082411 1155.010292 428.529148 C 1158.094638 435.97418 1160.994946 443.492487 1163.709512 451.082364 C 1166.425781 458.670538 1168.9529 466.321761 1171.292573 474.034331 C 1173.632246 481.748605 1175.781064 489.514 1177.740731 497.332221 C 1179.698695 505.150443 1181.464099 513.012969 1183.036946 520.918098 C 1184.609792 528.823226 1185.986671 536.762435 1187.169288 544.735726 C 1188.351905 552.709017 1189.338555 560.706164 1190.129238 568.727168 C 1190.918217 576.748173 1191.511229 584.784513 1191.906571 592.834487 C 1192.301913 600.88446 1192.499583 608.939545 1192.499583 616.999743 Z M 1192.499583 616.999743 " stroke="#106719" stroke-width="15" stroke-opacity="1" stroke-miterlimit="4"/></g><path stroke-linecap="round" transform="matrix(2.292321, 0, 0, 2.292321, -104.599984, 89.603203)" fill="none" stroke-linejoin="miter" d="M 850.423434 643.753464 C 838.176364 643.753464 825.924182 643.649517 813.68052 643.753464 C 805.66122 643.821627 797.897529 646.040311 789.91231 646.544713 C 787.804389 646.677629 785.699876 646.948574 783.59366 647.06445 C 782.688805 647.115572 782.095792 647.032073 781.441434 647.686432 C 779.99128 649.136586 780.778555 649.475694 782.550776 650.257856 C 786.03728 651.798325 790.716625 651.675633 794.332638 650.6958 C 797.07958 649.951126 800.170743 649.269502 802.653556 647.821053 C 804.262188 646.88382 806.039521 646.534488 807.762324 645.871609 C 809.90603 645.046845 812.05996 644.116429 814.26842 643.484223 C 818.351345 642.318647 822.594451 641.705186 826.823925 641.400159 C 832.321218 641.004818 837.83044 640.393061 843.16244 638.912234 C 849.322612 637.201359 854.920445 633.708038 860.473972 630.608356 C 871.72928 624.328899 883.1158 618.528284 895.049323 613.666604 C 895.548612 613.463821 896.739749 612.72426 897.250967 612.72426 C 898.118332 612.72426 895.652559 613.409291 894.897661 613.835306 C 892.586958 615.135503 891.165773 617.294545 889.284492 619.095735 C 887.416844 620.883293 885.404351 622.701523 883.030597 623.785305 C 879.740059 625.288284 876.151312 625.993765 872.726154 627.113331 C 870.277422 627.914239 868.477936 628.626535 865.853685 628.626535 " stroke="#106719" stroke-width="20" stroke-opacity="1" stroke-miterlimit="4"/><path stroke-linecap="round" transform="matrix(2.292321, 0, 0, 2.292321, -104.599984, 89.603203)" fill="none" stroke-linejoin="miter" d="M 741.505114 605.330349 C 743.205765 605.187208 744.911528 604.452759 746.530383 603.968806 C 751.160311 602.585111 755.943604 601.537114 760.716672 600.807777 C 774.48717 598.706673 788.411034 598.190343 802.183236 596.18637 C 809.73392 595.087252 817.163616 593.422387 824.739861 592.454482 C 835.344218 591.099755 846.020146 590.145482 856.726747 590.554456 C 862.418303 590.772576 867.049934 593.528039 872.509738 594.438006 " stroke="#106719" stroke-width="30" stroke-opacity="1" stroke-miterlimit="4"/><path stroke-linecap="round" transform="matrix(2.292321, 0, 0, 2.292321, -104.599984, 89.603203)" fill="none" stroke-linejoin="miter" d="M 887.938286 605.330349 C 887.844563 606.187491 886.808495 607.310465 886.324542 607.918814 C 882.156415 613.151978 875.832653 616.781623 870.458052 620.624276 C 862.864766 626.055111 855.593548 630.833291 846.490466 633.096281 C 841.852018 634.249929 837.404425 635.020164 832.975577 636.928709 C 827.043748 639.484797 821.031829 641.969315 814.687619 643.317225 C 814.471203 643.363235 810.173567 643.976696 811.393673 644.290243 C 813.627694 644.866215 816.032121 645.070702 818.318968 645.266669 C 825.772521 645.905691 833.231186 645.852865 840.439354 643.821627 C 842.610325 643.208166 844.569992 641.717114 846.623383 640.795219 C 849.961634 639.297351 853.669666 638.595279 856.943162 637.029249 C 858.688118 636.195964 860.00706 634.851462 861.617395 633.837547 C 863.689531 632.530534 866.037723 631.702361 868.138828 630.441358 C 870.088271 629.272374 872.705705 627.825628 874.324561 626.206772 " stroke="#106719" stroke-width="30" stroke-opacity="1" stroke-miterlimit="4"/><path stroke-linecap="round" transform="matrix(2.292321, 0, 0, 2.292321, -104.599984, 89.603203)" fill="none" stroke-linejoin="miter" d="M 694.912742 631.349621 C 695.560284 631.511507 696.606576 632.806591 697.398963 633.164444 C 699.542669 634.128941 701.720456 634.766259 703.988558 635.349047 C 708.514538 636.511215 713.367697 637.603517 717.753944 639.215556 C 722.632664 641.006522 727.809595 642.015325 732.865537 643.165564 C 739.722669 644.724778 747.109763 645.939772 754.144118 646.408388 C 760.08617 646.805434 766.321321 646.670813 772.263374 646.408388 C 781.443138 646.00623 789.772577 643.67167 798.534847 641.18204 C 806.325803 638.968468 813.866263 636.117577 821.664035 633.921046 C 825.264711 632.905427 829.015344 632.05851 832.522297 630.74468 C 833.30446 630.451582 835.010223 630.083506 835.294801 629.231476 " stroke="#106719" stroke-width="30" stroke-opacity="1" stroke-miterlimit="4"/><path stroke-linecap="round" transform="matrix(2.292321, 0, 0, 2.292321, -104.599984, 89.603203)" fill="none" stroke-linejoin="miter" d="M 714.327082 423.197148 C 714.327082 415.5357 714.327082 407.874252 714.327082 400.214508 C 714.327082 394.747888 713.855058 389.054628 714.393541 383.613569 C 715.087092 376.587735 717.179677 369.328445 719.597736 362.742258 C 720.209493 361.079097 720.872372 359.739706 721.414262 358.044168 C 722.085662 355.951584 722.741724 353.841959 723.641467 351.83969 C 724.224255 350.54631 724.94848 349.234185 725.688042 348.026007 C 725.940242 347.613625 727.170573 344.575288 727.586363 345.405165 " stroke="#106719" stroke-width="30" stroke-opacity="1" stroke-miterlimit="4"/><g clip-path="url(#b4484a991d)"><path stroke-linecap="round" transform="matrix(2.292321, 0, 0, 2.292321, -104.599984, 89.603203)" fill="none" stroke-linejoin="miter" d="M 871.971256 330.055004 C 864.454653 336.821821 855.319194 342.608804 847.052806 348.361707 C 825.515208 363.348903 803.149437 377.117697 782.119649 392.832526 C 770.448551 401.552195 757.804436 409.719748 747.472728 420.051456 C 742.258308 425.265875 759.939621 412.161664 766.258271 408.358205 C 788.325831 395.071659 806.589932 377.424428 824.625689 359.143286 C 839.137453 344.433851 851.113577 327.810759 866.79603 314.481612 C 870.146209 311.63413 873.101047 308.883779 875.853102 305.518263 C 876.345575 304.918434 878.678431 303.313211 879.542389 303.698328 C 882.740907 305.119513 877.214644 325.810194 876.619928 327.947083 C 873.3754 339.606253 868.927807 351.570449 862.292202 361.779465 C 854.405819 373.910659 840.260428 379.372167 828.843234 386.984197 " stroke="#106719" stroke-width="40" stroke-opacity="1" stroke-miterlimit="4"/></g><path stroke-linecap="round" transform="matrix(2.292321, 0, 0, 2.292321, -104.599984, 89.603203)" fill="none" stroke-linejoin="miter" d="M 825.392516 400.785368 C 808.346817 401.213087 792.858627 410.788193 778.285517 418.708657 C 768.296325 424.137788 758.051524 429.35732 749.149522 436.536519 C 745.380144 439.57656 741.542604 442.449603 738.079956 445.83216 C 736.684332 447.197111 732.710467 451.556093 730.508824 451.678785 C 722.625848 452.116728 714.834892 457.716265 707.219453 457.716265 " stroke="#106719" stroke-width="40" stroke-opacity="1" stroke-miterlimit="4"/><g clip-path="url(#307bacf59d)"><path stroke-linecap="round" transform="matrix(2.292321, 0, 0, 2.292321, -104.599984, 89.603203)" fill="none" stroke-linejoin="miter" d="M 688.243056 473.243648 C 688.243056 460.083202 691.327402 448.020171 697.731255 436.343961 C 705.738626 421.743586 709.196162 404.597347 716.707652 389.572662 C 724.254928 374.47811 732.492348 359.43468 740.668422 344.718429 C 747.222231 332.921231 758.547405 323.581285 767.982778 314.144208 C 777.090972 305.037718 792.284359 296.413477 805.504447 296.413477 C 815.652116 296.413477 825.320945 294.68897 835.311841 294.68897 C 846.125798 294.68897 858.178605 293.232 868.617668 295.551224 C 874.612547 296.883798 881.423669 300.72645 887.498639 300.72645 " stroke="#106719" stroke-width="40" stroke-opacity="1" stroke-miterlimit="4"/></g><g clip-path="url(#e85ae4d1d8)"><path stroke-linecap="round" transform="matrix(2.292321, 0, 0, 2.292321, -104.599984, 89.603203)" fill="none" stroke-linejoin="miter" d="M 904.750529 297.277435 C 898.839149 302.650332 892.690905 306.177734 887.929765 312.803114 C 882.149598 320.846271 875.486729 328.679829 868.041697 335.23023 C 855.801443 346.001585 842.671671 355.750505 830.375183 366.47585 C 815.316417 379.610735 801.796415 393.204011 785.043814 404.237791 C 772.162834 412.718891 759.014317 419.006868 744.742826 424.938696 C 736.870075 428.210489 728.828622 432.111079 720.541784 434.234336 C 720.199269 434.322947 718.619606 434.800084 719.20069 433.852627 C 724.052145 425.933866 729.653386 418.231521 734.86951 410.561553 C 748.445745 390.603617 762.45822 370.127648 781.160264 354.542327 C 786.517825 350.079398 792.488846 346.468497 797.790173 341.939109 C 807.440257 333.691465 815.812298 323.690345 824.337703 314.336767 C 827.684475 310.66452 832.500144 303.246753 837.46918 301.590408 " stroke="#106719" stroke-width="40" stroke-opacity="1" stroke-miterlimit="4"/></g><path stroke-linecap="round" transform="matrix(2.292321, 0, 0, 2.292321, -104.599984, 89.603203)" fill="none" stroke-linejoin="miter" d="M 845.616284 635.367792 C 839.272074 635.367792 833.326613 637.625669 827.333438 639.43538 C 815.689605 642.950853 803.292578 644.496434 791.2517 645.893762 C 782.281535 646.936646 773.299441 646.965615 764.346317 647.928408 C 757.593132 648.656041 750.785418 648.640705 744.003264 648.640705 C 739.179074 648.640705 735.249515 648.212986 730.730351 646.580498 C 727.315418 645.348463 724.317978 643.165564 721.22 641.31666 C 718.916112 639.943189 715.678401 637.707464 713.793712 635.824479 " stroke="#106719" stroke-width="40" stroke-opacity="1" stroke-miterlimit="4"/><path stroke-linecap="round" transform="matrix(2.292321, 0, 0, 2.292321, -104.599984, 89.603203)" fill="none" stroke-linejoin="miter" d="M 700.062407 630.332298 C 700.943405 625.707483 706.987702 620.958271 710.336177 617.998321 C 713.497206 615.203665 716.077151 613.608666 719.972629 612.226675 C 725.096733 610.408444 729.765854 607.317281 734.620717 604.928191 C 741.290403 601.646174 747.670399 598.144334 754.5565 595.291739 C 764.221921 591.287201 773.630029 586.916291 784.079317 585.476361 C 791.442554 584.460742 798.545071 582.729419 806.024185 582.729419 C 813.784468 582.729419 821.435691 581.040696 829.139741 580.897556 C 835.202781 580.786792 841.281159 580.897556 847.347608 580.897556 C 851.982647 580.897556 856.571677 580.483469 861.179452 580.440868 C 865.949112 580.394858 870.989718 580.950381 875.725297 580.338624 C 876.928363 580.183555 878.574483 579.527492 879.590102 580.338624 C 879.896833 580.584009 881.861612 581.412181 880.404642 580.440868 " stroke="#106719" stroke-width="40" stroke-opacity="1" stroke-miterlimit="4"/><path stroke-linecap="round" transform="matrix(2.292321, 0, 0, 2.292321, -104.599984, 89.603203)" fill="none" stroke-linejoin="miter" d="M 911.529274 596.460724 C 904.222271 596.460724 896.915267 596.460724 889.608263 596.460724 C 882.59947 596.460724 876.103598 597.532576 869.190232 598.520931 C 851.089721 601.105988 833.802045 608.044915 816.349076 613.167315 C 794.317301 619.632514 772.065703 624.654375 749.495446 628.856583 C 743.570433 629.960813 737.667574 630.79069 731.645431 630.79069 C 730.372499 630.79069 724.4952 629.986374 723.864699 631.247378 " stroke="#106719" stroke-width="40" stroke-opacity="1" stroke-miterlimit="4"/><path stroke-linecap="round" transform="matrix(2.292321, 0, 0, 2.292321, -104.599984, 89.603203)" fill="none" stroke-linejoin="miter" d="M 694.111834 630.332298 C 708.947369 630.332298 724.512241 635.601248 738.028835 641.292804 C 741.237577 642.642418 744.700224 643.380276 748.123678 643.96136 C 751.686865 644.5663 755.502252 645.8256 759.108041 645.893762 C 765.941316 646.026679 772.299159 646.532784 779.146067 645.537614 C 786.977921 644.402711 794.946099 643.119555 802.617771 641.088317 C 812.252519 638.537341 821.531119 635.166713 830.767117 631.247378 C 841.461789 626.711173 852.732433 623.705214 863.367464 618.991788 C 868.912471 616.532831 874.295592 613.661492 879.946251 611.463256 C 883.175442 610.207365 887.13397 608.908872 890.015533 606.988398 " stroke="#106719" stroke-width="40" stroke-opacity="1" stroke-miterlimit="4"/><path stroke-linecap="round" transform="matrix(2.292321, 0, 0, 2.292321, -104.599984, 89.603203)" fill="none" stroke-linejoin="miter" d="M 907.867252 600.122746 C 904.510257 600.122746 901.153261 600.098889 897.796265 600.122746 C 894.243303 600.148307 890.7994 600.976479 887.270295 601.037825 C 881.270304 601.143477 875.314619 601.078723 869.316332 601.393973 C 846.868767 602.57659 824.382009 602.411297 801.905475 602.411297 C 791.108559 602.411297 780.572364 602.126719 769.915181 603.987551 C 763.143252 605.170168 756.782001 606.683372 750.182181 608.590213 C 745.889657 609.830768 741.43184 611.764875 737.596004 614.107955 C 736.024862 615.06734 732.255484 616.602697 731.645431 618.431152 " stroke="#106719" stroke-width="40" stroke-opacity="1" stroke-miterlimit="4"/><path stroke-linecap="round" transform="matrix(2.292321, 0, 0, 2.292321, -104.599984, 89.603203)" fill="none" stroke-linejoin="miter" d="M 901.0016 593.713781 C 889.545213 599.635385 879.637816 608.227249 868.503496 614.770834 C 861.290216 619.008828 854.33084 622.628249 846.279163 624.838413 C 831.489638 628.899185 816.381453 630.945759 801.218739 633.077537 C 792.205973 634.345356 783.252848 636.13121 774.212817 637.197951 C 765.377273 638.240835 756.511055 638.165856 747.639726 638.799766 C 738.006682 639.488206 728.399199 638.571422 718.829205 638.571422 " stroke="#106719" stroke-width="40" stroke-opacity="1" stroke-miterlimit="4"/><path stroke-linecap="round" transform="matrix(2.292321, 0, 0, 2.292321, -104.599984, 89.603203)" fill="none" stroke-linejoin="miter" d="M 695.028618 630.79069 C 698.264625 630.79069 702.918409 634.028401 705.784636 635.570575 C 709.363159 637.497865 713.793712 638.082357 717.557978 639.588745 C 724.045329 642.182322 731.827765 643.649517 738.739427 644.724778 C 742.171401 645.258148 745.806158 646.173228 749.268806 646.326593 C 753.375587 646.508927 757.492593 646.428837 761.575518 647.06445 C 770.191238 648.403841 778.510453 647.250193 787.054603 646.352154 C 795.353369 645.477972 803.376077 643.14682 811.390265 640.960512 C 816.684776 639.517175 822.27068 637.963073 826.85119 634.9094 " stroke="#106719" stroke-width="40" stroke-opacity="1" stroke-miterlimit="4"/></svg>